<?xml version="1.0" encoding="utf-8"?>
<!-- Generator: Adobe Illustrator 26.0.1, SVG Export Plug-In . SVG Version: 6.00 Build 0)  -->
<svg version="1.1" id="Layer_1" xmlns="http://www.w3.org/2000/svg" xmlns:xlink="http://www.w3.org/1999/xlink" x="0px" y="0px"
	 viewBox="0 0 2887.84 562.89" style="enable-background:new 0 0 2887.84 562.89;" xml:space="preserve">
<style type="text/css">
	.st0{fill:#404041;}
	.st1{fill:#0083CA;}
</style>
<g>
	<g>
		<path class="st0" d="M2839.59,58.05c0,26.27-21.13,47.12-47.97,47.12s-48.25-20.85-48.25-47.12c0-26.27,21.41-46.83,48.54-46.83
			C2818.46,11.22,2839.59,31.78,2839.59,58.05z M2755.36,58.05c0,20.84,15.7,37.41,36.55,37.41c20.27,0.29,35.69-16.56,35.69-37.12
			c0-20.84-15.42-37.69-36.26-37.69C2771.06,20.64,2755.36,37.49,2755.36,58.05z M2784.2,82.32h-10.85V35.49
			c4.29-0.57,10.28-1.43,17.99-1.43c8.85,0,12.85,1.43,15.99,3.71c2.85,2,4.85,5.43,4.85,9.99c0,5.71-4.28,9.42-9.71,11.14v0.57
			c4.57,1.43,6.85,5.14,8.28,11.42c1.43,7.14,2.57,9.71,3.43,11.42h-11.42c-1.43-1.71-2.28-5.71-3.71-11.42
			c-0.86-4.86-3.72-7.14-9.71-7.14h-5.14V82.32z M2784.48,56.05h5.14c6,0,10.85-2,10.85-6.85c0-4.28-3.14-7.14-9.99-7.14
			c-2.86,0-4.86,0.28-6,0.57V56.05z"/>
	</g>
	<g>
		<g>
			<polygon class="st1" points="2693.06,10.84 2269.15,10.84 2693.06,217.52 			"/>
			<polygon class="st1" points="2693.06,508.78 2269.15,508.78 2693.06,302.11 			"/>
			<polygon class="st1" points="2569.1,260.59 2195.13,80.94 2195.13,439.76 			"/>
		</g>
	</g>
	<g>
		<g>
			<path class="st0" d="M12.22,70.73h72.54l117.95,183.29L320.66,70.73h72.54v387.63h-68.11V180.37L202.71,363.11h-2.22
				L79.22,181.48v276.88h-67V70.73z"/>
			<path class="st0" d="M480.7,57.44h71.99v63.68H480.7V57.44z M483.47,165.98h67v292.38h-67V165.98z"/>
			<path class="st0" d="M637.97,165.98h67v44.85c18.83-27.13,45.96-50.94,91.37-50.94c65.9,0,104.11,44.3,104.11,111.86v186.61h-67
				V292.23c0-45.41-22.7-71.43-62.58-71.43c-38.76,0-65.9,27.13-65.9,72.54v165.02h-67V165.98z"/>
			<path class="st0" d="M982.42,57.44h71.99v63.68h-71.99V57.44z M985.18,165.98h67v292.38h-67V165.98z"/>
			<path class="st0" d="M1157.4,377.51V223.57h-37.1v-57.59h37.1V85.68h67v80.29h78.63v57.59h-78.63v143.42
				c0,26.03,13.29,36.55,35.99,36.55c14.95,0,28.24-3.32,41.53-9.97v54.82c-16.61,9.41-34.89,14.95-60.36,14.95
				C1192.29,463.34,1157.4,441.74,1157.4,377.51z"/>
			<path class="st0" d="M1351.77,374.19v-1.11c0-63.13,49.28-94.14,120.72-94.14c32.67,0,55.93,4.98,78.63,12.18v-7.2
				c0-41.53-25.47-63.68-72.54-63.68c-32.67,0-57.04,7.2-83.61,18.27l-17.72-52.61c32.11-14.4,63.68-23.81,110.2-23.81
				c43.74,0,76.42,11.63,96.9,32.67c21.6,21.04,31.56,52.05,31.56,90.26v173.32h-65.34v-36.55c-19.93,23.81-50.39,42.64-95.24,42.64
				C1400.51,464.45,1351.77,432.89,1351.77,374.19z M1552.24,353.14v-19.94c-17.17-6.64-39.87-11.63-66.45-11.63
				c-43.19,0-68.66,18.27-68.66,48.73v1.11c0,28.24,24.92,44.3,57.04,44.3C1518.46,415.72,1552.24,390.25,1552.24,353.14z"/>
			<path class="st0" d="M1752.15,412.95v45.41h-67V54.12h67v160.59c21.6-30.46,52.05-54.82,99.67-54.82
				c68.66,0,135.67,54.27,135.67,151.73v1.11c0,96.91-66.45,151.73-135.67,151.73C1803.09,464.45,1772.63,440.08,1752.15,412.95z
				 M1919.38,312.72v-1.11c0-56.48-38.21-93.58-83.62-93.58c-45.41,0-85.28,37.66-85.28,93.58v1.11c0,55.93,39.87,93.58,85.28,93.58
				C1881.72,406.3,1919.38,370.31,1919.38,312.72z"/>
		</g>
	</g>
</g>
</svg>
